<svg width="181" height="44" viewBox="0 0 181 44" fill="none" xmlns="http://www.w3.org/2000/svg">
<path fill-rule="evenodd" clip-rule="evenodd" d="M98.139 7.996L94.273 10.439C93.176 10.991 92.289 12.432 92.289 13.658V37.321C93.7 37.584 95.152 37.728 96.639 37.728C97.822 37.728 98.985 37.639 100.122 37.471V9.219C100.121 7.991 99.232 7.445 98.139 7.996Z" fill="#34B3CF"/>
<path fill-rule="evenodd" clip-rule="evenodd" d="M110.83 1.559C110.83 0.330997 109.942 -0.215003 108.85 0.335997L104.649 2.78C103.552 3.33 103.002 4.771 102.998 5.997V36.857C105.824 36.071 108.44 34.779 110.734 33.078C110.767 33.044 110.799 33.013 110.831 32.979L110.83 1.559Z" fill="#34B3CF"/>
<path fill-rule="evenodd" clip-rule="evenodd" d="M87.095 16.522L83.228 18.968C82.133 19.522 81.245 20.958 81.245 22.185V32.037C83.523 33.987 86.174 35.512 89.079 36.488V17.744C89.079 16.52 88.191 15.972 87.095 16.522Z" fill="#34B3CF"/>
<path fill-rule="evenodd" clip-rule="evenodd" d="M13.669 33.768C12.837 33.893 11.755 33.975 10.964 33.975C7.13499 33.975 5.30399 32.976 5.30399 28.398V13.873L1.26799 13.416C0.80999 13.375 0.47699 13.124 0.47699 12.667V11.543C0.47699 11.085 0.80999 10.794 1.26799 10.794H5.30399V6.71499C5.30399 6.29899 5.59599 5.96699 6.05299 5.88299L8.21699 5.54999H8.34199C8.67499 5.54999 8.96599 5.84199 8.96599 6.25699V10.794H13.461C13.919 10.794 14.294 11.169 14.294 11.626V13.041C14.294 13.499 13.919 13.873 13.461 13.873H8.96599V28.398C8.96599 30.688 9.54899 31.021 11.214 31.021H13.545C14.127 31.021 14.419 31.186 14.419 31.604V33.06C14.419 33.434 14.21 33.684 13.669 33.768Z" fill="white"/>
<path fill-rule="evenodd" clip-rule="evenodd" d="M35.144 23.404H21.202V23.987C21.202 28.938 23.159 30.772 26.987 30.772C29.401 30.772 32.481 30.603 34.395 30.313H34.604C34.937 30.313 35.269 30.479 35.269 30.896V32.31C35.269 32.852 35.103 33.143 34.437 33.269C32.065 33.726 29.776 33.975 26.987 33.975C22.201 33.975 17.54 31.728 17.54 23.987V20.242C17.54 14.29 20.828 10.503 26.78 10.503C32.856 10.503 35.935 14.332 35.935 20.242V22.488C35.935 23.029 35.644 23.404 35.144 23.404ZM32.231 20.242C32.231 15.539 30.442 13.706 26.78 13.706C23.2 13.706 21.202 15.746 21.202 20.242V20.615H32.231V20.242Z" fill="white"/>
<path fill-rule="evenodd" clip-rule="evenodd" d="M54.248 33.517C52.874 33.768 51.002 33.975 49.045 33.975C43.385 33.975 40.181 29.979 40.181 23.862V20.615C40.181 14.498 43.344 10.503 49.045 10.503C50.959 10.503 52.874 10.71 54.248 10.961C54.914 11.085 55.08 11.293 55.08 11.875V13.375C55.08 13.79 54.747 13.999 54.373 13.999H54.206C52.375 13.79 51.084 13.706 49.045 13.706C45.716 13.706 43.843 15.912 43.843 20.615V23.862C43.843 28.523 45.675 30.772 49.045 30.772C51.084 30.772 52.375 30.688 54.206 30.479H54.373C54.747 30.479 55.08 30.688 55.08 31.103V32.603C55.08 33.143 54.914 33.393 54.248 33.517Z" fill="white"/>
<path fill-rule="evenodd" clip-rule="evenodd" d="M76.43 33.684H74.433C73.975 33.684 73.601 33.309 73.601 32.852V19.159C73.601 14.997 71.852 13.706 69.148 13.706C67.857 13.706 65.235 14.041 63.404 14.873V32.852C63.404 33.269 63.029 33.684 62.572 33.684H60.532C60.116 33.684 59.741 33.309 59.741 32.852V3.21899C59.741 2.76199 60.074 2.38699 60.532 2.38699H62.613C63.071 2.38699 63.404 2.76199 63.404 3.21899V11.793C65.402 10.919 67.982 10.503 69.771 10.503C74.183 10.503 77.263 13.041 77.263 19.159V32.852C77.263 33.309 76.888 33.684 76.43 33.684Z" fill="white"/>
<path fill-rule="evenodd" clip-rule="evenodd" d="M124.126 33.975C118.008 33.975 114.887 29.938 114.887 23.82V20.657C114.887 14.539 118.008 10.503 124.126 10.503C130.244 10.503 133.407 14.539 133.407 20.657V23.82C133.407 29.938 130.244 33.975 124.126 33.975ZM129.745 20.657C129.745 16.412 128.038 13.706 124.126 13.706C120.255 13.706 118.549 16.371 118.549 20.657V23.82C118.549 28.065 120.214 30.772 124.126 30.772C127.997 30.772 129.745 28.106 129.745 23.82V20.657Z" fill="white"/>
<path fill-rule="evenodd" clip-rule="evenodd" d="M147.724 13.666C145.81 13.666 144.062 14.165 141.981 15.413V32.852C141.981 33.269 141.606 33.684 141.148 33.684H139.109C138.693 33.684 138.318 33.309 138.318 32.852V11.626C138.318 11.169 138.651 10.794 139.109 10.794H141.065C141.523 10.794 141.856 11.169 141.856 11.626V12.5C143.936 11.043 145.851 10.503 147.724 10.503C148.307 10.503 148.598 10.752 148.598 11.252V12.958C148.598 13.416 148.307 13.666 147.724 13.666Z" fill="white"/>
<path fill-rule="evenodd" clip-rule="evenodd" d="M155.881 33.684H153.717C153.301 33.684 152.968 33.309 152.968 32.852V3.17699C152.968 2.76199 153.259 2.38699 153.717 2.38699H155.881C156.298 2.38699 156.631 2.71999 156.631 3.17699V32.852C156.631 33.269 156.339 33.684 155.881 33.684Z" fill="white"/>
<path fill-rule="evenodd" clip-rule="evenodd" d="M178.688 33.269C176.108 33.768 173.569 33.975 171.03 33.975C164.829 33.975 161.958 29.938 161.958 23.695V20.699C161.958 14.165 164.954 10.503 171.03 10.503C172.32 10.503 174.276 10.627 175.899 10.919V3.17699C175.899 2.76199 176.232 2.38699 176.69 2.38699H178.812C179.229 2.38699 179.561 2.71999 179.561 3.17699V32.31C179.561 32.852 179.437 33.143 178.688 33.269ZM175.899 13.999C174.526 13.748 172.362 13.706 171.03 13.706C166.952 13.706 165.62 16.245 165.62 20.699V23.695C165.62 28.232 166.91 30.772 171.03 30.772C172.445 30.772 174.484 30.646 175.899 30.521V13.999Z" fill="white"/>
<path fill-rule="evenodd" clip-rule="evenodd" d="M124 36.7566H129.928V37.5063H124.926V39.5111H129.739V40.253H124.926V42.9911H124V36.7566Z" fill="white"/>
<path fill-rule="evenodd" clip-rule="evenodd" d="M131.281 36.7566H135.818C136.404 36.7645 137.113 36.7736 137.69 37.2596C137.908 37.436 138.285 37.8427 138.285 38.593C138.285 40.0857 136.933 40.2881 136.489 40.3584L138.947 42.9911H137.708L135.45 40.4996H132.226V42.9911H131.281V36.7566ZM132.217 37.5063V39.7669H135.515C136.035 39.7669 136.696 39.7584 137.076 39.2905C137.246 39.0881 137.302 38.8481 137.302 38.6281C137.302 38.3887 137.235 38.1517 137.104 37.9657C136.801 37.5148 136.319 37.5148 135.883 37.5063H132.217Z" fill="white"/>
<mask id="mask0" mask-type="alpha" maskUnits="userSpaceOnUse" x="139" y="36" width="9" height="8">
<path d="M147.712 36.6062H139.601V43.1582H147.712V36.6062Z" fill="white"/>
</mask>
<g mask="url(#mask0)">
<path fill-rule="evenodd" clip-rule="evenodd" d="M147.712 39.9624C147.712 42.0897 145.84 43.1582 143.694 43.1582C142.72 43.1582 141.738 42.9909 140.953 42.4691C140.3 42.046 139.601 41.2697 139.601 39.9527C139.601 37.6479 141.633 36.606 143.628 36.606C145.963 36.6151 147.712 37.8951 147.712 39.9624ZM140.547 39.9C140.547 40.3854 140.679 41.0127 141.132 41.4897C141.757 42.1691 142.73 42.3909 143.694 42.3909C146.162 42.3909 146.757 40.9321 146.757 39.8739C146.757 38.2309 145.35 37.3212 143.525 37.3648C142.134 37.4012 140.547 38.0545 140.547 39.9Z" fill="white"/>
</g>
<path fill-rule="evenodd" clip-rule="evenodd" d="M149.199 36.7566H150.503L152.583 40.8184C152.914 41.4893 152.97 41.622 153.225 42.2136C153.452 41.622 153.528 41.462 153.831 40.8451L155.939 36.7566H157.225V42.9911H156.336V39.4051C156.336 38.213 156.356 38.0099 156.421 37.4978C156.232 37.9839 156.175 38.0899 155.92 38.593L153.642 42.9911H152.772L150.683 38.9463C150.314 38.239 150.22 38.0457 150.012 37.5239C150.068 38.0008 150.068 38.1251 150.088 39.1051V42.9911H149.199V36.7566Z" fill="white"/>
<path fill-rule="evenodd" clip-rule="evenodd" d="M162.19 42.9911H163.164V36.7565H162.19V42.9911Z" fill="white"/>
<path fill-rule="evenodd" clip-rule="evenodd" d="M165 36.7566H168.318C169.084 36.7566 169.981 36.7645 170.87 37.4457C171.409 37.8596 171.976 38.6281 171.976 39.8293C171.976 40.9766 171.428 41.7281 171.041 42.0984C170.105 42.9645 168.8 42.9911 167.676 42.9911H165V36.7566ZM165.955 37.4899V42.2396H167.902C168.744 42.2396 169.783 42.2136 170.492 41.3663C170.87 40.9063 171.012 40.3323 171.012 39.8033C171.012 38.9633 170.663 38.399 170.314 38.0808C169.679 37.4978 168.933 37.4978 168.328 37.4899H165.955Z" fill="white"/>
<mask id="mask1" mask-type="alpha" maskUnits="userSpaceOnUse" x="173" y="36" width="8" height="8">
<path d="M180.694 36.6062H173.141V43.141H180.694V36.6062Z" fill="white"/>
</mask>
<g mask="url(#mask1)">
<path fill-rule="evenodd" clip-rule="evenodd" d="M179.871 42.1428C179.749 42.2489 179.645 42.3465 179.503 42.4519C179.021 42.7968 178.094 43.141 176.96 43.141C174.652 43.141 173.141 41.6483 173.141 39.8647C173.141 38.9901 173.528 38.3453 173.717 38.081C174.342 37.2331 175.57 36.6059 177.121 36.6059C178.661 36.6059 179.636 37.1974 180.013 37.498C180.383 37.7889 180.524 38.0362 180.666 38.2574L179.73 38.5222C179.607 38.355 179.513 38.2222 179.304 38.0544C178.737 37.595 177.963 37.3744 177.196 37.3744C175.551 37.3744 174.153 38.2392 174.153 39.8113C174.153 40.4562 174.407 40.9768 174.606 41.2592C175.334 42.3101 176.733 42.3986 177.168 42.3986C177.801 42.3986 178.737 42.2137 179.371 41.5774C179.788 41.1544 179.843 40.8095 179.9 40.4477H176.96V39.7059H180.694V42.9998H179.871V42.1428Z" fill="white"/>
</g>
</svg>
