<svg width="616" height="348" viewBox="0 0 616 348" fill="none" xmlns="http://www.w3.org/2000/svg">
<g clip-path="url(#clip0)">
<path d="M592.709 219.006L591.444 219.736L405.515 327.004L373.327 345.572C370.56 347.164 367.424 348.002 364.231 348.002C361.039 348.002 357.903 347.164 355.136 345.572L353.953 344.888L291.851 309.055C288.799 307.295 285.337 306.369 281.813 306.369C278.289 306.369 274.827 307.295 271.775 309.055L240.206 327.253C237.178 329.004 233.741 329.926 230.242 329.926C226.744 329.926 223.307 329.004 220.279 327.253L199.676 315.361L110.061 263.657L3.47377 202.119L3.36291 202.054C2.34031 201.464 1.49113 200.616 0.90072 199.594C0.31031 198.572 -0.000518799 197.413 -0.000518799 196.233C-0.000518799 195.053 0.31031 193.894 0.90072 192.872C1.49113 191.85 2.34031 191.001 3.36291 190.412L115.151 125.892C115.671 125.592 116.26 125.434 116.86 125.434C117.46 125.434 118.05 125.592 118.57 125.892L177.041 159.592C177.563 159.892 178.154 160.049 178.755 160.049C179.357 160.049 179.948 159.892 180.469 159.592L291.74 95.1827L296.59 92.4128L297.311 92.0066C297.511 91.9263 297.701 91.8208 297.874 91.6927C298.223 91.3862 298.5 91.006 298.683 90.5797C298.867 90.1533 298.954 89.6914 298.937 89.2275C298.939 88.6253 298.783 88.0332 298.483 87.5111C298.182 86.989 297.75 86.5555 297.228 86.2544C296.706 85.9553 296.272 85.5237 295.97 85.0033C295.668 84.4829 295.509 83.8921 295.509 83.2907C295.509 82.6892 295.668 82.0984 295.97 81.578C296.272 81.0576 296.706 80.626 297.228 80.3269L333.212 59.5619C336.345 57.7509 339.911 56.8259 343.529 56.8861C347.147 56.9463 350.68 57.9894 353.75 59.9035L592.848 208.887C593.711 209.426 594.42 210.179 594.907 211.072C595.394 211.965 595.643 212.968 595.629 213.985C595.615 215.002 595.339 215.999 594.828 216.878C594.316 217.758 593.587 218.491 592.709 219.006V219.006Z" fill="#B7BAD2"/>
<path d="M591.444 219.745L405.515 327.004L373.327 345.572C370.56 347.164 367.424 348.002 364.231 348.002C361.039 348.002 357.903 347.164 355.136 345.572L353.953 344.889L291.851 309.055C288.799 307.295 285.337 306.369 281.813 306.369C278.289 306.369 274.827 307.295 271.775 309.055L240.206 327.254C237.178 329.004 233.741 329.926 230.242 329.926C226.744 329.926 223.307 329.004 220.279 327.254L199.676 315.361L110.061 263.657L3.47375 202.119L115.188 137.664C115.708 137.364 116.297 137.206 116.897 137.206C117.497 137.206 118.087 137.364 118.607 137.664L177.078 171.364C177.6 171.664 178.191 171.821 178.792 171.821C179.394 171.821 179.985 171.664 180.506 171.364L297.265 103.963C297.784 103.661 298.215 103.228 298.515 102.707C298.815 102.186 298.972 101.596 298.972 100.995C298.972 100.394 298.815 99.8037 298.515 99.2828C298.215 98.762 297.784 98.3287 297.265 98.0265C296.788 97.7603 296.382 97.3835 296.081 96.9277C295.78 96.4719 295.593 95.9505 295.536 95.4075C295.479 94.8644 295.553 94.3156 295.753 93.8073C295.952 93.299 296.271 92.8461 296.683 92.4867C296.858 92.3189 297.054 92.1732 297.265 92.0527L297.837 91.7204L333.249 71.2878C336.381 69.4768 339.948 68.5518 343.566 68.612C347.184 68.6721 350.717 69.7152 353.787 71.6294L383.092 89.8922L482.15 151.615L591.444 219.745Z" fill="#44689A"/>
<path d="M298.974 89.1998V100.972L292.045 102.468L291.777 95.1827L296.627 92.4128L297.348 92.0066C297.548 91.9263 297.738 91.8208 297.911 91.6927C298.264 91.3832 298.543 90.9985 298.727 90.5671C298.91 90.1356 298.995 89.6683 298.974 89.1998Z" fill="#B7BAD2"/>
<path d="M482.15 151.633L336.982 235.441C332.733 237.89 327.914 239.18 323.008 239.18C318.103 239.18 313.284 237.89 309.035 235.441L230.266 189.996C229.22 189.393 228.351 188.526 227.748 187.482C227.144 186.437 226.826 185.252 226.826 184.045C226.826 182.839 227.144 181.654 227.748 180.609C228.351 179.565 229.22 178.698 230.266 178.095L383.092 89.9107L482.15 151.633Z" fill="#355178"/>
<path d="M336.982 211.851L519.908 106.29C521.884 105.15 523.525 103.51 524.666 101.535C525.807 99.5602 526.408 97.32 526.408 95.0396C526.408 92.7592 525.807 90.519 524.666 88.5442C523.525 86.5693 521.884 84.9294 519.908 83.7892L446.47 41.3637C443.426 39.6077 439.974 38.6832 436.46 38.6832C432.945 38.6832 429.493 39.6077 426.449 41.3637L230.275 154.505C229.229 155.107 228.361 155.975 227.757 157.019C227.153 158.064 226.835 159.249 226.835 160.455C226.835 161.662 227.153 162.847 227.757 163.891C228.361 164.936 229.229 165.803 230.275 166.406L309.044 211.851C313.292 214.298 318.109 215.587 323.013 215.587C327.916 215.587 332.734 214.298 336.982 211.851V211.851Z" fill="#7A7FFF"/>
<path d="M336.982 200.079L519.908 94.518C521.884 93.3778 523.525 91.7378 524.666 89.763C525.807 87.7881 526.408 85.5479 526.408 83.2676C526.408 80.9872 525.807 78.747 524.666 76.7722C523.525 74.7973 521.884 73.1574 519.908 72.0172L446.47 29.5917C443.426 27.8356 439.974 26.9111 436.46 26.9111C432.945 26.9111 429.493 27.8356 426.449 29.5917L230.275 142.733C229.229 143.335 228.361 144.202 227.757 145.247C227.153 146.292 226.835 147.477 226.835 148.683C226.835 149.89 227.153 151.075 227.757 152.119C228.361 153.164 229.229 154.031 230.275 154.634L309.035 200.079C313.284 202.528 318.103 203.818 323.008 203.818C327.914 203.818 332.733 202.528 336.982 200.079V200.079Z" fill="#EEEEEE"/>
<path d="M407.197 137.66C410.317 132.259 410.318 126.421 407.198 124.621C404.078 122.821 399.02 125.74 395.9 131.141C392.78 136.542 392.779 142.38 395.899 144.18C399.019 145.98 404.077 143.061 407.197 137.66Z" fill="#4E475E"/>
<path d="M461.011 100.085C461.011 105.182 457.427 111.377 453.02 113.935C448.613 116.492 445.029 114.415 445.029 109.318C445.029 104.222 448.604 98.0357 453.02 95.4689C457.436 92.9022 461.011 94.9981 461.011 100.085Z" fill="#4E475E"/>
<path d="M489.637 90.1187C492.758 84.7178 492.758 78.8804 489.638 77.0804C486.519 75.2803 481.46 78.1994 478.34 83.6002C475.22 89.0011 475.22 94.8385 478.339 96.6385C481.459 98.4386 486.517 95.5195 489.637 90.1187Z" fill="#4E475E"/>
<path d="M384.885 148.651L467.312 101.073V89.1998L384.894 136.759L384.885 148.651Z" fill="#399847"/>
<path d="M384.894 136.759L498.197 71.3709L467.285 57.069L343.643 112.993L384.894 136.759Z" fill="#4E475E"/>
<path d="M384.894 136.759L343.643 112.993V65.4249L384.894 89.209V136.759Z" fill="#C0C2D1"/>
<path d="M343.643 112.993L343.698 124.885L384.885 148.651L384.894 136.759L343.643 112.993Z" fill="#A87373"/>
<path d="M467.312 101.073L498.197 83.263V71.3709L467.312 89.1998V101.073Z" fill="#093554"/>
<path d="M477.641 83.2722V23.8118C477.641 23.8118 498.243 23.8118 498.243 47.5868V71.3709L477.641 83.2722Z" fill="#433A51"/>
<path d="M436.353 59.488V0C436.353 0 456.965 0.101563 456.965 23.8118V47.596L436.353 59.488Z" fill="#433A51"/>
<path d="M436.353 59.488L477.604 83.2722L487.794 26.7202L447.237 3.35156L436.353 59.488Z" fill="#433A51"/>
<path d="M436.372 0L426.061 5.94603L467.285 29.7579L477.595 23.8118L436.372 0Z" fill="#F7AB1B"/>
<path d="M426.061 5.94604V12.4553L467.285 35.9994V29.7579L426.061 5.94604Z" fill="#DE9917"/>
<path d="M467.285 35.9994L477.595 29.7579V23.8118L467.285 29.7579V35.9994Z" fill="#DE9917"/>
<path d="M413.469 132.142C413.469 137.239 409.884 143.434 405.478 145.992C401.071 148.549 397.486 146.472 397.486 141.375C397.486 136.279 401.061 130.093 405.478 127.526C409.894 124.959 413.469 127.055 413.469 132.142Z" fill="#433A51"/>
<path d="M409.977 134.164C409.892 135.724 409.44 137.241 408.658 138.594C407.877 139.946 406.787 141.095 405.478 141.948C403.75 142.945 402.244 142.686 401.496 141.468C401.124 140.826 400.942 140.094 400.969 139.353C401.056 137.793 401.509 136.275 402.293 134.923C403.076 133.571 404.167 132.422 405.478 131.57C405.913 131.21 406.449 130.992 407.012 130.944C407.575 130.897 408.139 131.023 408.629 131.305C409.118 131.588 409.51 132.013 409.751 132.524C409.992 133.035 410.071 133.607 409.977 134.164V134.164Z" fill="#C0C2D1"/>
<path d="M409.192 133.38C409.107 134.939 408.655 136.457 407.873 137.809C407.091 139.161 406.002 140.31 404.692 141.163C404.236 141.495 403.698 141.699 403.136 141.753C402.573 141.806 402.007 141.708 401.496 141.468C401.124 140.826 400.942 140.094 400.969 139.353C401.056 137.793 401.509 136.275 402.293 134.923C403.076 133.571 404.167 132.422 405.478 131.57C405.932 131.237 406.467 131.032 407.028 130.976C407.589 130.921 408.154 131.018 408.665 131.256C409.036 131.901 409.218 132.636 409.192 133.38V133.38Z" fill="#EFEFF4"/>
<path d="M462.628 110.31C465.748 104.909 465.748 99.0719 462.629 97.2719C459.509 95.4718 454.451 98.3909 451.331 103.792C448.211 109.193 448.21 115.03 451.33 116.83C454.45 118.63 459.508 115.711 462.628 110.31Z" fill="#433A51"/>
<path d="M461.473 104.462C461.391 106.022 460.94 107.54 460.158 108.893C459.376 110.246 458.285 111.394 456.974 112.245C455.246 113.242 453.75 112.984 452.992 111.765C452.628 111.121 452.449 110.39 452.475 109.651C452.561 108.09 453.014 106.572 453.795 105.219C454.577 103.865 455.666 102.714 456.974 101.858C457.41 101.497 457.947 101.278 458.511 101.231C459.075 101.184 459.641 101.311 460.131 101.594C460.621 101.878 461.012 102.305 461.252 102.818C461.492 103.33 461.57 103.904 461.473 104.462V104.462Z" fill="#C0C2D1"/>
<path d="M460.688 103.677C460.605 105.237 460.155 106.755 459.373 108.108C458.591 109.461 457.5 110.609 456.189 111.46C455.732 111.793 455.195 111.997 454.632 112.05C454.07 112.104 453.503 112.005 452.992 111.765C452.628 111.121 452.449 110.39 452.475 109.651C452.561 108.09 453.014 106.572 453.795 105.219C454.577 103.865 455.666 102.714 456.974 101.858C457.431 101.526 457.968 101.322 458.531 101.268C459.093 101.215 459.66 101.313 460.171 101.553C460.539 102.199 460.718 102.935 460.688 103.677V103.677Z" fill="#EFEFF4"/>
<path d="M493.567 92.4771C496.687 87.0763 496.687 81.2389 493.568 79.4388C490.448 77.6388 485.39 80.5578 482.27 85.9587C479.15 91.3595 479.149 97.197 482.269 98.997C485.389 100.797 490.447 97.878 493.567 92.4771Z" fill="#433A51"/>
<path d="M492.423 86.6238C492.338 88.1832 491.886 89.7007 491.105 91.0531C490.323 92.4054 489.233 93.5545 487.924 94.4072C486.196 95.4043 484.7 95.1458 483.942 93.927C483.574 93.2849 483.395 92.5521 483.425 91.8127C483.509 90.2528 483.959 88.7345 484.739 87.3807C485.519 86.027 486.607 84.8757 487.915 84.0201C488.35 83.6555 488.888 83.4338 489.454 83.3847C490.02 83.3357 490.588 83.4619 491.08 83.746C491.572 84.0302 491.965 84.4587 492.205 84.9735C492.445 85.4882 492.522 86.0643 492.423 86.6238Z" fill="#C0C2D1"/>
<path d="M491.629 85.8667C491.544 87.4261 491.092 88.9436 490.31 90.296C489.528 91.6483 488.439 92.7974 487.129 93.6501C486.673 93.9826 486.135 94.1864 485.573 94.24C485.01 94.2936 484.444 94.1951 483.933 93.9548C483.565 93.3126 483.385 92.5798 483.415 91.8404C483.496 90.2749 483.946 88.7506 484.728 87.3916C485.509 86.0326 486.601 84.8774 487.915 84.0201C488.371 83.6875 488.909 83.4838 489.471 83.4301C490.034 83.3765 490.6 83.4751 491.111 83.7154C491.486 84.3684 491.665 85.1149 491.629 85.8667Z" fill="#EFEFF4"/>
<path d="M384.894 136.759V89.209L467.312 41.613V89.1997L384.894 136.759Z" fill="#EFEFF4"/>
<path d="M395.149 85.7558C397.107 84.6202 398.687 85.8205 398.687 88.4334V121.589C398.687 124.193 397.107 127.221 395.149 128.357C393.19 129.483 391.601 128.283 391.601 125.679V92.5236C391.601 89.9107 393.19 86.8823 395.149 85.7558Z" fill="#C0C2D1"/>
<path d="M405.478 79.9483C407.436 78.8219 409.016 80.0222 409.016 82.6259V115.781C409.016 118.385 407.436 121.423 405.478 122.549C403.519 123.676 401.93 122.475 401.93 119.872V86.7161C401.93 84.1124 403.519 81.0747 405.478 79.9483Z" fill="#C0C2D1"/>
<path d="M415.742 73.8638C417.7 72.7281 419.28 73.9284 419.28 76.5413V109.697C419.28 112.301 417.7 115.329 415.742 116.465C413.783 117.591 412.194 116.391 412.194 113.787V80.6315C412.213 78.0186 413.802 74.9902 415.742 73.8638Z" fill="#C0C2D1"/>
<path d="M426.098 69.0534C428.057 67.9178 429.646 69.118 429.646 71.731V104.877C429.646 107.49 428.057 110.519 426.098 111.645C424.14 112.781 422.551 111.58 422.551 108.968V75.8212C422.551 73.2082 424.14 70.1706 426.098 69.0534Z" fill="#C0C2D1"/>
<path d="M436.372 61.9809C438.33 60.8545 439.91 62.0548 439.91 64.6585V97.8141C439.91 100.427 438.33 103.455 436.372 104.582C434.413 105.708 432.824 104.517 432.824 101.904V68.7487C432.824 66.145 434.413 63.1166 436.372 61.9809Z" fill="#C0C2D1"/>
<path d="M446.691 56.0257C448.65 54.89 450.239 56.0903 450.239 58.7032V91.8496C450.239 94.4626 448.65 97.491 446.691 98.6266C444.733 99.753 443.153 98.5528 443.153 95.9491V62.7842C443.153 60.1805 444.733 57.1521 446.691 56.0257Z" fill="#C0C2D1"/>
<path d="M457.002 50.0704C458.961 48.944 460.55 50.1443 460.55 52.7572V85.8667C460.55 88.4796 458.961 91.508 457.002 92.6344C455.043 93.7701 453.454 92.5698 453.454 89.9569V56.8474C453.454 54.2345 455.043 51.2061 457.002 50.0704Z" fill="#C0C2D1"/>
<path d="M343.643 65.4248L426.089 17.8289L467.312 41.613L384.894 89.209L343.643 65.4248Z" fill="#E5E5EA"/>
<path d="M495.093 49.3779L480.311 57.9277V28.7422C482.191 28.8372 484.035 29.2917 485.744 30.081V30.081C495.555 34.7344 495.093 49.3779 495.093 49.3779Z" fill="#C0C2D1"/>
<path d="M494.271 48.9809L480.246 57.069V28.7422C482.126 28.8372 483.97 29.2917 485.679 30.081V30.081C494.742 35.1315 494.271 48.9809 494.271 48.9809Z" fill="#EFEFF4"/>
<path d="M614.337 206.828L606.595 211.287L607.38 203.273L614.337 206.828Z" fill="#5F546F"/>
<path d="M513.598 59.9959L505.828 64.4831L509.302 68.3979L513.635 66.3389L513.598 59.9959Z" fill="#5F546F"/>
<path d="M568.024 204.51V209.468L536.076 191.003V187.032C536.074 186.501 536.213 185.979 536.478 185.518C536.743 185.057 537.124 184.675 537.585 184.409C538.045 184.143 538.567 184.003 539.099 184.003C539.63 184.003 540.152 184.144 540.612 184.41L564.337 198.103C565.461 198.753 566.393 199.688 567.04 200.813C567.687 201.937 568.026 203.213 568.024 204.51V204.51Z" fill="#5F546F"/>
<path d="M551.994 155.779C551.994 153.591 550.222 151.818 548.036 151.818C545.849 151.818 544.077 153.591 544.077 155.779V189.378C544.077 191.565 545.849 193.338 548.036 193.338C550.222 193.338 551.994 191.565 551.994 189.378V155.779Z" fill="#B6B9D1"/>
<path d="M537.508 184.484L529.517 189.054L536.917 193.763L537.508 184.484Z" fill="#5F546F"/>
<path d="M560.032 214.085L568.024 209.468L556.364 201.343L560.032 214.085Z" fill="#5F546F"/>
<path d="M528.057 195.647L560.032 214.113V209.127C560.031 207.832 559.689 206.559 559.04 205.438C558.391 204.317 557.459 203.385 556.337 202.738L532.584 189.027C532.125 188.761 531.603 188.62 531.072 188.62C530.542 188.619 530.02 188.758 529.56 189.023C529.1 189.288 528.718 189.669 528.453 190.129C528.187 190.588 528.047 191.109 528.048 191.64L528.057 195.647Z" fill="#EFEFF4"/>
<path d="M516.767 60.0143L610.078 113.87C611.863 114.899 613.346 116.379 614.377 118.162C615.409 119.945 615.952 121.967 615.954 124.027V204.049C615.954 204.598 615.81 205.137 615.535 205.613C615.261 206.089 614.866 206.484 614.391 206.759C613.915 207.034 613.376 207.179 612.826 207.18C612.277 207.181 611.737 207.037 611.261 206.763L517.941 152.917C516.157 151.886 514.675 150.406 513.644 148.623C512.613 146.841 512.068 144.819 512.065 142.76V62.6919C512.073 62.1457 512.223 61.611 512.501 61.1408C512.779 60.6705 513.176 60.2809 513.651 60.0105C514.125 59.7401 514.663 59.5982 515.209 59.5989C515.756 59.5995 516.293 59.7427 516.767 60.0143V60.0143Z" fill="#093554"/>
<path d="M504.073 147.349V67.2991C504.078 66.7529 504.227 66.2175 504.504 65.7466C504.781 65.2757 505.176 64.8856 505.652 64.6155C506.127 64.3454 506.664 64.2046 507.211 64.2073C507.758 64.21 508.294 64.356 508.766 64.6308L602.077 118.478C603.862 119.506 605.345 120.986 606.376 122.769C607.408 124.552 607.951 126.575 607.953 128.634V208.665C607.954 209.215 607.811 209.755 607.536 210.231C607.262 210.707 606.867 211.102 606.391 211.376C605.914 211.651 605.374 211.795 604.824 211.794C604.275 211.793 603.735 211.647 603.26 211.37L509.977 157.524C508.184 156.497 506.694 155.015 505.657 153.229C504.621 151.442 504.074 149.414 504.073 147.349Z" fill="#EFEFF4"/>
<path d="M600.036 194.816C600.033 195.482 599.816 196.129 599.417 196.662C598.957 197.277 598.287 197.702 597.534 197.857C596.782 198.012 595.999 197.886 595.333 197.503L517.913 152.852C516.13 151.822 514.651 150.341 513.625 148.558C512.598 146.775 512.06 144.753 512.065 142.696V81.0655C512.061 80.5834 512.171 80.1072 512.386 79.6757C512.601 79.2441 512.915 78.8694 513.303 78.5818C513.792 78.2039 514.383 77.9801 515 77.9389C515.617 77.8978 516.232 78.0413 516.767 78.351L594.114 122.992C595.896 124.023 597.376 125.504 598.406 127.286C599.436 129.069 599.979 131.091 599.98 133.149L600.036 194.816Z" fill="#D6DCE3"/>
<path d="M512.674 142.188C512.668 144.245 513.205 146.268 514.232 148.052C515.259 149.835 516.739 151.316 518.522 152.344L569.613 181.806L595.943 196.995C596.318 197.316 596.78 197.518 597.271 197.576C597.762 197.633 598.258 197.543 598.697 197.317C599.137 197.091 599.498 196.74 599.737 196.307C599.975 195.875 600.079 195.381 600.036 194.89V190.421V169.388V153.092V133.232C600.033 131.173 599.489 129.151 598.458 127.368C597.426 125.585 595.944 124.105 594.16 123.076L582.667 116.428L571.747 110.131L556.817 101.517L523.077 82.0534L516.795 78.4249C516.26 78.1152 515.644 77.9717 515.027 78.0128C514.41 78.0539 513.82 78.2777 513.33 78.6557C512.924 79.1855 512.703 79.8345 512.702 80.5023L512.674 142.188Z" fill="#313551"/>
<path d="M571.71 110.122L600.017 169.333V153.092V153.083L582.63 116.419L571.71 110.122Z" fill="#5E6AA5"/>
<path d="M523.077 82.0534L569.613 181.77L595.943 196.958C596.318 197.279 596.78 197.481 597.271 197.539C597.762 197.596 598.258 197.506 598.697 197.28C599.137 197.054 599.498 196.703 599.737 196.27C599.975 195.838 600.079 195.344 600.036 194.853V190.384L556.78 101.526L523.077 82.0534Z" fill="#5E6AA5"/>
<path d="M521.303 111.617V161.217C521.324 162.456 521.634 163.672 522.208 164.77C522.782 165.868 523.605 166.817 524.611 167.542L578.75 198.777C580.597 199.829 582.057 198.712 582.057 196.275V146.675C582.057 144.238 580.57 141.412 578.74 140.36L524.611 109.124C522.782 108.026 521.303 109.189 521.303 111.617Z" fill="#7170D1"/>
<path opacity="0.8" d="M519.317 112.938V162.5C519.317 164.938 520.795 167.772 522.625 168.825L576.754 200.06C578.602 201.113 580.062 199.995 580.062 197.558V147.995C580.062 145.558 578.583 142.733 576.754 141.68L522.615 110.445C520.805 109.392 519.317 110.509 519.317 112.938Z" fill="#8887FC"/>
<path d="M532.981 169.942L530.81 168.686V154.283L532.981 155.539V169.942Z" fill="#B9B8FD"/>
<path d="M538.183 172.943L536.021 171.696V150.11L538.183 151.356V172.943Z" fill="#B9B8FD"/>
<path d="M543.393 175.953L541.231 174.697V156.231L543.393 157.487V175.953Z" fill="#B9B8FD"/>
<path d="M548.604 178.953L546.442 177.707V161.577L548.604 162.833V178.953Z" fill="#B9B8FD"/>
<path d="M553.814 181.963L551.643 180.708V157.598L553.814 158.853V181.963Z" fill="#B9B8FD"/>
<path d="M559.016 184.964L556.854 183.718V155.419L559.016 156.665V184.964Z" fill="#B9B8FD"/>
<path d="M564.226 187.974L562.065 186.718V155.225L564.226 156.48V187.974Z" fill="#B9B8FD"/>
<path d="M569.437 190.975L567.266 189.728V154.911L569.437 156.157V190.975Z" fill="#B9B8FD"/>
<path d="M572.735 145.733L565.474 141.615L567.081 145.669L546.451 151.679C546.082 151.781 545.62 151.532 545.241 151.024L537.684 140.867C537.286 140.341 536.76 140.083 536.436 140.221L527.198 143.684C526.68 143.877 526.56 144.773 526.93 145.678C527.299 146.601 528.029 147.164 528.547 146.97L536.584 143.961C536.954 143.822 537.443 144.081 537.831 144.607L545.333 154.698C545.712 155.206 546.174 155.465 546.544 155.354L568.402 148.992L569.936 152.861L572.735 145.733Z" fill="#B9B8FD"/>
<path d="M323.031 148.669L374.556 118.939V166.507L323.013 196.219L323.031 148.669Z" fill="#EFEFF4"/>
<path d="M281.79 124.867L323.031 148.669L323.013 196.219L281.429 172.675L281.79 124.867Z" fill="#C0C2D1"/>
<path d="M323.031 148.669L281.79 124.867L333.314 95.1642L374.556 118.939L323.031 148.669Z" fill="#F7AB1B"/>
<path d="M323.031 136.897L281.79 113.095L333.314 83.3922L374.556 107.167L323.031 136.897Z" fill="#F7AB1B"/>
<path d="M323.031 136.897V143.176L374.556 113.446V107.167L323.031 136.897Z" fill="#6065D4"/>
<path d="M281.79 119.373V113.095L323.031 136.897V143.176L281.79 119.373Z" fill="#7A7FFF"/>
<path d="M592.349 266.63L456.097 345.239C453.215 346.904 449.946 347.781 446.618 347.781C443.289 347.781 440.02 346.904 437.139 345.239L415.114 332.535L353.953 297.302L320.482 277.913C319.69 277.453 319.032 276.794 318.575 276.001C318.118 275.207 317.878 274.308 317.878 273.393C317.878 272.478 318.118 271.579 318.575 270.785C319.032 269.992 319.69 269.333 320.482 268.873L345.851 254.23C348.296 252.819 351.07 252.076 353.893 252.076C356.717 252.076 359.49 252.819 361.936 254.23L386.464 268.384C389.093 269.904 392.075 270.704 395.112 270.704C398.148 270.704 401.131 269.904 403.759 268.384L467.128 231.821C468.181 231.212 469.055 230.337 469.663 229.284C470.271 228.231 470.591 227.036 470.591 225.82C470.591 224.604 470.271 223.41 469.663 222.356C469.055 221.303 468.181 220.428 467.128 219.819L446.396 207.862C445.373 207.273 444.524 206.426 443.933 205.405C443.342 204.383 443.031 203.225 443.031 202.045C443.031 200.866 443.342 199.707 443.933 198.686C444.524 197.665 445.373 196.817 446.396 196.228L457.316 189.922C460.325 188.189 463.737 187.277 467.211 187.277C470.684 187.277 474.096 188.189 477.105 189.922L592.312 256.4C593.214 256.913 593.964 257.656 594.488 258.552C595.011 259.448 595.288 260.466 595.292 261.504C595.296 262.542 595.026 263.562 594.509 264.462C593.992 265.362 593.247 266.11 592.349 266.63V266.63Z" fill="#C0C2D1"/>
<path d="M443.042 202.433L443.079 189.479L454.766 193.44L452.992 203.255L443.042 202.433Z" fill="#C0C2D1"/>
<path d="M317.876 273.416V261.561L323.031 261.912L324.704 272.705L317.876 273.416Z" fill="#C0C2D1"/>
<path d="M595.296 261.506L595.278 250.223L588.848 251.709L587.332 259.114L595.296 261.506Z" fill="#C0C2D1"/>
<path d="M323.031 152.593L405.468 259.622L456.983 229.901L374.556 122.863L323.031 148.669V152.593Z" fill="#C0C2D1"/>
<path d="M592.349 244.674L477.133 178.196C474.123 176.452 470.704 175.533 467.224 175.533C463.745 175.533 460.326 176.452 457.316 178.196L446.359 184.521C445.336 185.11 444.487 185.957 443.896 186.978C443.305 188 442.994 189.158 442.994 190.338C442.994 191.517 443.305 192.676 443.896 193.697C444.487 194.718 445.336 195.566 446.359 196.155L467.091 208.111C468.144 208.72 469.018 209.595 469.626 210.649C470.234 211.702 470.553 212.897 470.553 214.113C470.553 215.329 470.234 216.523 469.626 217.577C469.018 218.63 468.144 219.505 467.091 220.114L403.731 256.677C401.103 258.196 398.12 258.997 395.084 258.997C392.048 258.997 389.065 258.196 386.437 256.677L361.908 242.523C359.463 241.112 356.689 240.369 353.866 240.369C351.042 240.369 348.268 241.112 345.823 242.523L320.454 257.157C319.66 257.616 319 258.275 318.542 259.069C318.083 259.863 317.842 260.764 317.842 261.681C317.842 262.598 318.083 263.498 318.542 264.292C319 265.087 319.66 265.746 320.454 266.205L437.111 333.504C439.994 335.169 443.265 336.045 446.594 336.045C449.924 336.045 453.195 335.169 456.078 333.504L592.349 254.83C593.232 254.308 593.963 253.565 594.472 252.675C594.98 251.784 595.247 250.777 595.247 249.752C595.247 248.727 594.98 247.719 594.472 246.829C593.963 245.938 593.232 245.196 592.349 244.674Z" fill="#EFEFF4"/>
<path d="M456.983 225.977L405.478 255.689L394.724 241.728L390.862 236.715L375.701 217.04L371.83 212.017L356.679 192.341L352.817 187.319L337.647 167.634L333.785 162.62L323.031 148.669L374.556 118.939L385.3 132.89L389.171 137.913L404.323 157.598L408.194 162.611L423.345 182.296L427.207 187.319L442.368 206.994L446.23 212.017L456.983 225.977Z" fill="#AAAAAA"/>
<path d="M389.171 137.913L337.647 167.634L333.785 162.62L385.3 132.89L389.171 137.913Z" fill="#EFEFF4"/>
<path d="M408.194 162.611L356.679 192.341L352.817 187.319L404.323 157.598L408.194 162.611Z" fill="#EFEFF4"/>
<path d="M427.207 187.319L375.701 217.04L371.83 212.017L423.345 182.296L427.207 187.319Z" fill="#EFEFF4"/>
<path d="M446.23 212.017L394.724 241.728L390.862 236.715L442.368 206.994L446.23 212.017Z" fill="#EFEFF4"/>
<path d="M405.514 327.004L373.327 345.572C370.56 347.164 367.424 348.002 364.231 348.002C361.039 348.002 357.902 347.164 355.136 345.572L353.953 344.889V297.302L405.514 327.004Z" fill="#ACAFBC"/>
<path d="M513.672 195.01C513.672 195.01 515.815 193.514 515.668 193.163C515.52 192.812 515.215 192.683 515.298 192.351C515.381 192.018 517.22 189.248 516.656 189.045C516.342 188.934 515.529 190.679 515.049 190.513C514.568 190.347 513.155 189.876 512.748 190.208C512.342 190.541 511.603 194.068 511.603 194.068C511.603 194.068 513.164 195.351 513.672 195.01Z" fill="#F9C4AA"/>
<path d="M488.635 209.524C489.398 208.674 490.369 208.037 491.453 207.677C495.333 206.911 502.198 206.754 504.202 203.984C507.039 200.06 510.762 194.686 510.762 194.686L513.053 196.625C513.053 196.625 508.776 205.858 505.662 208.351C502.549 210.844 496.516 212.968 496.516 212.968L488.635 209.524Z" fill="#DFE4EA"/>
<path d="M501.098 252.983V259.086C501.098 259.254 501.032 259.415 500.915 259.534C500.797 259.653 500.638 259.721 500.47 259.724V259.724C500.317 259.723 500.17 259.668 500.055 259.568C499.939 259.468 499.864 259.33 499.842 259.179L498.918 252.845C498.901 252.743 498.909 252.639 498.943 252.541C498.976 252.443 499.034 252.355 499.11 252.286C499.187 252.216 499.279 252.166 499.379 252.141C499.48 252.116 499.585 252.117 499.685 252.143L500.609 252.374C500.747 252.405 500.871 252.483 500.96 252.593C501.049 252.704 501.098 252.842 501.098 252.983Z" fill="#E297A3"/>
<path d="M484.201 244.231L482.353 250.057C482.326 250.136 482.315 250.22 482.322 250.304C482.328 250.387 482.352 250.468 482.39 250.543C482.429 250.617 482.483 250.683 482.548 250.736C482.613 250.788 482.688 250.828 482.769 250.851C482.913 250.895 483.068 250.887 483.207 250.828C483.345 250.769 483.459 250.662 483.526 250.528L486.298 244.757C486.345 244.663 486.369 244.559 486.366 244.453C486.364 244.348 486.335 244.245 486.283 244.154C486.231 244.062 486.157 243.985 486.067 243.929C485.978 243.873 485.876 243.841 485.771 243.834L484.847 243.778C484.704 243.768 484.562 243.808 484.444 243.89C484.326 243.973 484.24 244.093 484.201 244.231V244.231Z" fill="#E297A3"/>
<path d="M512.046 249.235L512.822 252.236C512.864 252.396 512.843 252.566 512.764 252.711C512.685 252.857 512.554 252.967 512.397 253.02V253.02C512.249 253.068 512.089 253.062 511.945 253.003C511.801 252.944 511.683 252.835 511.612 252.697L510.171 249.927C510.127 249.845 510.101 249.754 510.095 249.66C510.089 249.567 510.103 249.473 510.136 249.386C510.17 249.298 510.221 249.219 510.288 249.153C510.354 249.087 510.434 249.037 510.522 249.004L511.168 248.746C511.258 248.713 511.354 248.7 511.449 248.708C511.544 248.716 511.636 248.744 511.719 248.79C511.802 248.836 511.875 248.9 511.931 248.977C511.987 249.054 512.027 249.142 512.046 249.235V249.235Z" fill="#E297A3"/>
<path d="M520.768 213.494C520.768 213.494 522.07 210.807 522.615 210.586C523.16 210.364 524.186 210.669 524.278 211.352C524.299 212.246 524.262 213.14 524.167 214.03L520.768 213.494Z" fill="#B77983"/>
<path d="M506.946 216.596C507.362 217.104 507.658 217.427 507.658 217.427C508.316 216.43 509.075 215.502 509.921 214.657C510.67 214.094 516.869 217.381 516.869 217.381L517.599 216.541L519.788 214.03C519.788 214.03 510.42 207.253 508.979 207.16C507.538 207.068 504.988 210.853 504.286 211.878C503.778 212.626 505.81 215.239 506.946 216.596Z" fill="#5F546F"/>
<path d="M506.946 216.596C507.362 217.104 507.658 217.427 507.658 217.427C508.316 216.43 509.075 215.502 509.921 214.657C510.67 214.094 516.869 217.381 516.869 217.381L517.599 216.541C517.599 216.541 511.205 213.845 510.716 213.079C510.226 212.312 509.21 212.054 509.145 212.774C508.558 214.126 507.82 215.408 506.946 216.596V216.596Z" fill="#433A59"/>
<path d="M508.397 217.473C508.397 217.473 508.175 214.704 506.826 213.78C505.477 212.857 493.134 207.917 491.739 207.733C490.344 207.548 488.635 209.579 488.635 209.579L504.193 217.437L508.397 217.473Z" fill="white"/>
<path d="M532.473 221.517C532.929 221.351 533.325 221.052 533.609 220.659C533.942 220.086 534.718 217.732 535.586 217.723C536.455 217.714 537.933 219.828 537.785 221.176C537.637 222.524 535.938 228.885 534.404 228.756C532.87 228.627 531.272 225.137 531.217 224.998C531.161 224.86 532.473 221.517 532.473 221.517Z" fill="#B77983"/>
<path d="M494.031 210.253C494.372 211.887 498.853 211.269 498.853 211.269C498.853 211.269 498.632 210.262 498.502 209.265C498.502 209.265 498.502 209.182 498.502 209.136C498.537 208.242 498.718 207.359 499.038 206.523L498.983 205.701L495.065 205.221L494.031 210.253Z" fill="#F4B49A"/>
<path d="M498.493 209.136C498.527 208.242 498.708 207.359 499.029 206.523V206.172L498.53 206.246C498.53 206.246 498.197 208.776 498.493 209.136Z" fill="#EDA48A"/>
<path d="M501.551 199.275C501.551 199.275 502.041 203.578 501.2 205.738C500.784 206.837 500.424 207.049 499.768 206.809C499.068 206.51 498.389 206.165 497.735 205.775L495.287 201.159L499.906 197.586C499.906 197.586 501.431 197.327 501.551 199.275Z" fill="#F9C4AA"/>
<path d="M499.639 203.485C499.639 203.485 499.5 202.405 498.761 202.331C498.022 202.257 498.059 205.175 499.121 204.954C499.015 205.534 498.722 206.063 498.287 206.462C497.851 206.86 497.298 207.105 496.71 207.16C494.613 207.363 493.079 206.08 493.181 205.646C493.282 205.212 494.483 205.378 494.677 204.538C493.8 204.389 492.985 203.99 492.329 203.389C491.674 202.788 491.206 202.01 490.982 201.15C490.243 198.186 492.959 191.63 498.613 193.634C499.121 193.421 499.669 193.318 500.219 193.331C500.77 193.344 501.312 193.472 501.81 193.708C503.657 194.474 503.916 199.248 501.597 200.254L501.274 199.266C501.274 199.266 501.163 201.657 500.017 202.257C499.639 202.47 499.639 203.485 499.639 203.485Z" fill="#3D220C"/>
<path d="M532.87 220.668C532.87 220.668 534.949 224.315 531.272 225.968C531.272 225.968 523.936 219.902 523.022 219.957C522.107 220.013 518.014 227.519 515.178 229.993C512.342 232.468 508.794 223.807 508.794 223.807C508.794 223.807 518.846 213.826 519.733 213.217C520.297 212.81 520.965 212.571 521.66 212.527C522.355 212.483 523.048 212.636 523.659 212.968C524.934 213.845 532.87 220.668 532.87 220.668Z" fill="#5F546F"/>
<path d="M517.922 216.679C517.922 216.679 517.608 216.107 517.303 216.19C516.998 216.273 516.896 219.052 516.896 219.052C516.896 219.052 516.028 218.314 515.806 218.415C515.584 218.517 515.751 219.643 515.899 219.772C516.046 219.902 517.238 220.88 517.155 221.268C517.072 221.656 510.762 227.731 510.762 227.731L512.61 229.227L519.742 220.733L517.922 216.679Z" fill="#433A59"/>
<path d="M517.285 222.035C517.285 222.035 517.599 221.185 517.46 220.89C517.322 220.594 516.361 219.542 516.342 219.329C516.324 219.117 515.936 217.787 516.25 217.806C516.564 217.824 517.035 218.729 517.359 218.895C517.682 219.062 517.497 215.664 517.756 215.405C518.014 215.147 518.523 215.876 518.735 215.922C518.948 215.968 519.252 215.738 519.659 216.024C520.065 216.31 520.149 216.486 520.37 216.532C520.592 216.578 520.758 216.292 520.842 216.689C520.925 217.086 521.59 219.763 521.377 220.382C521.165 221 519.733 223.373 519.733 223.373C519.233 223.461 518.719 223.376 518.274 223.133C517.829 222.889 517.48 222.502 517.285 222.035V222.035Z" fill="#F9C4AA"/>
<path d="M519.705 223.355C519.705 223.355 519.539 221.896 517.358 221.813L516.435 223.041L518.984 224.888L519.705 223.355Z" fill="#DFE4EA"/>
<path d="M518.994 224.841C518.777 224.331 518.425 223.889 517.976 223.564C517.526 223.238 516.997 223.042 516.444 222.995C516.444 222.995 511.686 227.196 511.261 227.187C510.836 227.177 508.637 218.166 508.397 217.427C508.333 217.093 508.203 216.775 508.014 216.491C507.825 216.208 507.582 215.966 507.297 215.778C507.013 215.59 506.694 215.461 506.36 215.399C506.025 215.337 505.681 215.342 505.348 215.414C503.26 215.848 502.576 219.883 503.583 223.9C504.59 227.916 510.004 234.545 511.095 234.287C512.185 234.028 518.994 224.841 518.994 224.841Z" fill="white"/>
<path d="M481.623 245.597C481.623 245.597 481.217 249.29 492.645 252.263C508.351 256.335 516.093 245.708 516.093 245.708L520.361 233.659L516.73 231.083L515.178 229.984L511.288 234.231C511.06 234.253 510.829 234.238 510.605 234.185C509.713 233.899 508.964 233.285 508.508 232.468C505.653 228.138 504.905 217.4 504.905 217.4L504.775 217.344L477.179 206.265L481.623 245.597Z" fill="#058ED8"/>
<path d="M500.137 218.461C500.137 218.461 508.757 218.646 502.835 215.83C496.913 213.014 483.702 207.289 483.702 207.289C483.702 207.289 471.534 202.83 480.422 209.302C484.487 212.275 499.278 218.461 500.137 218.461Z" fill="#7A7FFF"/>
<path d="M511.289 234.231C511.06 234.253 510.829 234.238 510.605 234.185C510.762 234.252 510.926 234.302 511.095 234.333C511.678 234.496 512.288 234.54 512.89 234.465C513.491 234.389 514.071 234.194 514.596 233.891C515.12 233.588 515.579 233.184 515.946 232.702C516.313 232.22 516.579 231.669 516.73 231.083L515.178 229.984L511.289 234.231Z" fill="#7A7FFF"/>
<path d="M502.151 218.406C502.151 218.406 504.988 228.221 508.508 232.468C505.653 228.138 504.905 217.4 504.905 217.4L504.775 217.344L502.151 218.406Z" fill="#7A7FFF"/>
<path d="M513.053 196.579C513.219 196.579 513.811 195.083 513.811 195.083L511.381 193.44L510.762 194.64C510.762 194.64 510.226 195.97 513.053 196.579Z" fill="#C7CCD1"/>
<path d="M310.947 251.137L199.695 315.361L110.079 263.657L228.907 195.102L310.975 242.467C311.726 242.916 312.347 243.552 312.778 244.314C313.208 245.075 313.433 245.935 313.43 246.81C313.428 247.684 313.197 248.543 312.762 249.302C312.326 250.06 311.701 250.693 310.947 251.137V251.137Z" fill="#355178"/>
<path d="M69.6044 206.182L114.763 180.126L171.84 213.032L122.875 241.165L69.6044 210.512C69.2247 210.292 68.9094 209.976 68.6902 209.596C68.471 209.216 68.3557 208.785 68.3557 208.347C68.3557 207.908 68.471 207.477 68.6902 207.097C68.9094 206.717 69.2247 206.401 69.6044 206.182V206.182Z" fill="#BBB0CC"/>
<path d="M68.348 198.971V208.296L76.9584 203.384L68.348 198.971Z" fill="#BBB0CC"/>
<path d="M69.6044 196.801L114.763 170.745L171.84 203.652L122.875 231.748L69.5675 201.113C69.1939 200.888 68.8853 200.571 68.6723 200.191C68.4593 199.811 68.3492 199.382 68.3529 198.946C68.3567 198.511 68.4741 198.084 68.6936 197.707C68.9131 197.331 69.227 197.019 69.6044 196.801V196.801Z" fill="#093554"/>
<path d="M82.1599 170.745L106.615 184.853L131.07 170.745L106.615 156.637L82.1599 170.745Z" fill="#EFEFF4"/>
<path d="M82.1599 198.961L106.615 213.069L131.07 198.961L106.615 184.853L82.1599 198.961Z" fill="#BBB0CC"/>
<path d="M82.1599 170.745L106.615 184.853L82.1599 198.961V170.745Z" fill="#BBB0CC"/>
<path d="M131.07 170.745L106.615 184.853L131.07 198.961V170.745Z" fill="#BBB0CC"/>
<path d="M98.4662 170.745L106.615 175.445L114.763 170.745L106.615 166.037L98.4662 170.745Z" stroke="#2E3191" stroke-width="0.25" stroke-miterlimit="10"/>
<path d="M98.4662 57.8723L106.615 62.5718L114.763 57.8723L106.615 53.1635L98.4662 57.8723Z" fill="#BBB0CC"/>
<path d="M98.4662 57.8723V170.745L106.615 175.445V62.5719L98.4662 57.8723Z" fill="#093554"/>
<path d="M106.615 62.5719L114.763 57.8723V170.745L106.615 175.445V62.5719Z" fill="#093554"/>
<path d="M65.8628 76.6798L74.0113 100.196L106.615 119.013L98.4662 95.4966L65.8628 76.6798Z" fill="#3A3354"/>
<path d="M74.0113 100.196L98.4662 76.6798H65.8628L74.0113 100.196Z" fill="#4D4468"/>
<path d="M65.8628 76.6798L98.4662 95.4966L106.615 71.9803L98.4662 67.2714L65.8628 76.6798Z" fill="#058ED8"/>
<path d="M98.4662 95.4966L106.615 119.013L114.763 76.6798L106.615 81.3887V71.9803L98.4662 95.4966Z" fill="#0370AA"/>
<path d="M106.615 71.9803L116.084 66.5143V75.9135L115.299 76.3752V93.8162L114.763 94.0932V76.6798L106.615 81.3887V71.9803Z" fill="#0370AA"/>
<path d="M116.084 66.5143L114.763 65.9604V67.2714L116.084 66.5143Z" fill="#FE778A"/>
<path d="M313.479 213.309L313.469 222.145L305.339 216.569L313.479 213.309Z" fill="#C0C2D1"/>
<path d="M146.895 321.492L310.947 226.854C311.717 226.411 312.356 225.774 312.8 225.005C313.245 224.237 313.478 223.365 313.478 222.478C313.478 221.59 313.245 220.719 312.8 219.95C312.356 219.182 311.717 218.544 310.947 218.101L228.88 170.745L49.5564 274.219L131.504 321.501C133.844 322.85 136.499 323.559 139.201 323.558C141.903 323.556 144.556 322.844 146.895 321.492Z" fill="#C0C2D1"/>
<path d="M146.895 312.075L310.947 217.437C311.717 216.995 312.356 216.358 312.801 215.591C313.246 214.823 313.48 213.952 313.48 213.065C313.48 212.178 313.246 211.307 312.801 210.539C312.356 209.771 311.717 209.135 310.947 208.693L228.88 161.328L49.5564 264.802L131.504 312.075C133.843 313.426 136.497 314.138 139.2 314.138C141.902 314.138 144.556 313.426 146.895 312.075V312.075Z" fill="#EFEFF4"/>
<path d="M125.194 19.3892L135.375 13.4986L134.405 22.9624L125.194 19.3892Z" fill="#C0C2D1"/>
<path d="M214.07 271.81L224.38 265.845L215.419 261.884L214.07 271.81Z" fill="#C0C2D1"/>
<path d="M139.606 219.892L218.957 265.66C219.838 266.17 220.837 266.438 221.855 266.439C222.873 266.439 223.872 266.172 224.754 265.664C225.635 265.155 226.367 264.424 226.875 263.543C227.384 262.663 227.651 261.664 227.651 260.647V71.5371C227.65 69.0457 226.994 66.5984 225.746 64.4411C224.499 62.2839 222.706 60.4929 220.546 59.248L141.204 13.4801C140.326 12.972 139.329 12.7037 138.314 12.7019C137.299 12.7 136.301 12.9649 135.42 13.4699C134.54 13.9748 133.808 14.7022 133.297 15.579C132.786 16.4559 132.515 17.4514 132.511 18.4659V207.603C132.511 210.094 133.167 212.54 134.413 214.697C135.658 216.854 137.449 218.646 139.606 219.892V219.892Z" fill="#C0C2D1"/>
<path d="M129.037 225.986L208.37 271.754C209.252 272.275 210.256 272.553 211.28 272.559C212.305 272.566 213.312 272.301 214.201 271.791C215.089 271.281 215.826 270.546 216.337 269.658C216.848 268.771 217.115 267.764 217.11 266.741V77.6401C217.11 75.1484 216.454 72.7005 215.209 70.5419C213.963 68.3834 212.172 66.59 210.014 65.3417L130.635 19.5739C129.755 19.0669 128.756 18.8004 127.74 18.801C126.724 18.8016 125.726 19.0693 124.846 19.5772C123.966 20.0852 123.236 20.8155 122.727 21.6949C122.219 22.5743 121.951 23.5719 121.951 24.5874V213.697C121.95 216.187 122.604 218.633 123.848 220.79C125.091 222.947 126.881 224.739 129.037 225.986V225.986Z" fill="#7A7FFF"/>
<path d="M206.494 95.9306V236.272C206.504 237.497 206.115 238.693 205.386 239.679C204.545 240.838 203.304 241.644 201.903 241.94C200.501 242.237 199.04 242.004 197.801 241.285L139.597 207.714C137.44 206.467 135.649 204.676 134.403 202.519C133.158 200.362 132.502 197.915 132.502 195.425V55.0839C132.502 54.0674 132.77 53.0688 133.279 52.1885C133.788 51.3082 134.519 50.5769 135.4 50.0681C136.28 49.5594 137.279 49.2909 138.297 49.2897C139.314 49.2885 140.313 49.5545 141.195 50.0612L199.399 83.6415C201.557 84.8875 203.348 86.6791 204.594 88.8363C205.839 90.9934 206.495 93.4401 206.494 95.9306V95.9306Z" fill="#C0C2D1"/>
<path d="M206.494 95.9306V236.272C206.504 237.497 206.115 238.693 205.386 239.679C204.482 240.356 203.4 240.752 202.273 240.817C201.145 240.883 200.024 240.616 199.048 240.048L140.844 206.468C138.685 205.223 136.891 203.432 135.644 201.275C134.397 199.117 133.74 196.67 133.74 194.179V53.8375C133.735 52.6082 134.127 51.4102 134.857 50.4213C135.762 49.7468 136.845 49.3531 137.972 49.2891C139.099 49.2251 140.22 49.4936 141.195 50.0612L199.399 83.6415C201.557 84.8875 203.348 86.6791 204.594 88.8363C205.839 90.9934 206.495 93.4401 206.494 95.9306V95.9306Z" fill="#093554"/>
<path d="M168.191 236.364C168.236 237.456 167.953 238.537 167.378 239.466C166.297 241.008 164.273 241.313 161.955 239.965C160.141 238.778 158.63 237.182 157.546 235.306C156.461 233.43 155.832 231.326 155.709 229.162C155.709 227.316 156.328 225.949 157.335 225.257C158.342 224.564 160.107 224.509 161.955 225.562C163.771 226.745 165.282 228.34 166.366 230.217C167.449 232.094 168.075 234.2 168.191 236.364Z" fill="#C0C2D1"/>
<path d="M168.191 236.364C168.236 237.456 167.953 238.537 167.378 239.466C166.241 240.251 164.606 240.214 162.758 239.152C160.942 237.97 159.43 236.377 158.345 234.502C157.26 232.627 156.632 230.522 156.513 228.359C156.468 227.266 156.755 226.185 157.335 225.257C158.472 224.472 160.107 224.509 161.955 225.562C163.771 226.745 165.282 228.34 166.366 230.217C167.449 232.094 168.075 234.2 168.191 236.364V236.364Z" fill="#EFF3F9"/>
<path d="M227.633 190.273L277.771 161.346V198.971L227.633 227.897V190.273Z" fill="#F7AB1B"/>
<path d="M277.771 161.346L245.168 142.52V151.919L269.632 166.037L277.771 161.346Z" fill="#C0C2D1"/>
<path d="M245.168 142.52L227.633 152.649V162.057L245.168 151.938V142.52Z" fill="#EFEFF4"/>
<path d="M253.316 137.83L261.714 132.983C262.516 132.521 263.426 132.278 264.352 132.279C265.277 132.28 266.187 132.524 266.988 132.987C267.789 133.45 268.455 134.116 268.917 134.917C269.38 135.719 269.623 136.628 269.622 137.553V156.628L253.316 147.22V137.83Z" fill="#C168EB"/>
<path d="M267.729 133.5L299.463 151.725L285.929 156.637L253.316 137.83L267.729 133.5Z" fill="#7A7FFF"/>
<path d="M253.316 147.22V137.811L285.929 156.628V194.262L277.771 198.971V161.328L253.316 147.22Z" fill="#4D4468"/>
<path d="M285.929 156.637L294.317 151.799C295.119 151.335 296.028 151.09 296.954 151.089C297.88 151.088 298.79 151.331 299.592 151.793C300.394 152.256 301.06 152.922 301.522 153.724C301.985 154.525 302.227 155.435 302.226 156.36V184.853L285.929 194.262V156.637Z" fill="#6065D5"/>
<path d="M227.633 237.306L302.226 194.262V184.853L227.633 227.897V237.306Z" fill="#EFEFF4"/>
<path d="M227.633 235.672L275.674 207.973C276.161 207.693 276.566 207.289 276.849 206.803C277.131 206.317 277.28 205.765 277.281 205.203V203.772C277.284 203.467 277.205 203.167 277.054 202.903C276.903 202.638 276.684 202.419 276.421 202.266C276.157 202.113 275.858 202.033 275.553 202.033C275.248 202.033 274.949 202.114 274.685 202.267L227.642 229.412L227.633 235.672Z" fill="#3A3354"/>
<path d="M227.633 256.113L245.168 245.994V227.187L227.633 237.306V256.113Z" fill="#F7AB1B"/>
<path d="M253.316 222.487V231.877L261.474 236.576V217.778L253.316 222.487Z" fill="#D29117"/>
<path d="M261.474 236.576L277.771 227.177V208.37L261.483 217.769L261.474 236.576Z" fill="#F7AB1B"/>
<path d="M285.929 203.67V222.468L302.226 213.06V194.262L285.929 203.67Z" fill="#F7AB1B"/>
<path d="M277.789 217.778L285.929 222.468V203.67L277.789 208.37V217.778Z" fill="#D29117"/>
<path d="M245.177 151.929L269.632 166.037L227.633 190.273V162.057L245.177 151.929Z" fill="#87BAFC"/>
<path d="M243.579 156.739L248.447 159.509C248.588 159.559 248.709 159.651 248.795 159.772C248.881 159.894 248.927 160.039 248.927 160.187C248.927 160.336 248.881 160.481 248.795 160.603C248.709 160.724 248.588 160.816 248.447 160.866L244.752 163.017C244.388 163.199 243.986 163.294 243.579 163.294C243.171 163.294 242.77 163.199 242.405 163.017L237.536 160.247C237.395 160.2 237.272 160.11 237.185 159.989C237.098 159.868 237.051 159.722 237.051 159.573C237.051 159.425 237.098 159.279 237.185 159.158C237.272 159.037 237.395 158.947 237.536 158.899L241.232 156.748C241.595 156.565 241.997 156.468 242.404 156.467C242.811 156.465 243.213 156.558 243.579 156.739V156.739Z" fill="#4D4468"/>
<path d="M263.636 166.406L252.937 160.229C252.771 160.137 252.771 159.98 252.937 159.878C253.032 159.832 253.137 159.809 253.242 159.809C253.348 159.809 253.452 159.832 253.547 159.878L264.227 166.055C264.393 166.147 264.393 166.304 264.227 166.406C264.135 166.45 264.034 166.473 263.931 166.473C263.829 166.473 263.728 166.45 263.636 166.406V166.406Z" fill="#4D4468"/>
<path d="M261.206 167.8L250.517 161.632C250.35 161.531 250.35 161.374 250.517 161.282C250.611 161.231 250.715 161.205 250.822 161.205C250.928 161.205 251.033 161.231 251.127 161.282L261.816 167.449C261.982 167.551 261.982 167.708 261.816 167.8C261.721 167.846 261.616 167.87 261.511 167.87C261.405 167.87 261.301 167.846 261.206 167.8V167.8Z" fill="#4D4468"/>
<path d="M258.481 169.37L247.791 163.202C247.625 163.11 247.625 162.953 247.791 162.851C247.886 162.805 247.991 162.782 248.096 162.782C248.202 162.782 248.306 162.805 248.401 162.851L259.09 169.028C259.129 169.037 259.163 169.059 259.188 169.09C259.212 169.121 259.226 169.159 259.226 169.199C259.226 169.238 259.212 169.277 259.188 169.308C259.163 169.339 259.129 169.361 259.09 169.37V169.37C258.996 169.42 258.892 169.446 258.785 169.446C258.679 169.446 258.574 169.42 258.481 169.37V169.37Z" fill="#4D4468"/>
<path d="M255.755 170.948L245.066 164.772C245.027 164.763 244.993 164.741 244.968 164.71C244.944 164.679 244.93 164.64 244.93 164.601C244.93 164.561 244.944 164.523 244.968 164.492C244.993 164.461 245.027 164.439 245.066 164.43V164.43C245.158 164.38 245.261 164.354 245.366 164.354C245.471 164.354 245.574 164.38 245.666 164.43L256.365 170.598C256.531 170.69 256.531 170.847 256.365 170.948C256.27 170.994 256.166 171.018 256.06 171.018C255.954 171.018 255.85 170.994 255.755 170.948V170.948Z" fill="#4D4468"/>
<path d="M253.03 172.518L242.341 166.35C242.174 166.249 242.174 166.092 242.341 166C242.434 165.954 242.537 165.93 242.641 165.93C242.745 165.93 242.848 165.954 242.941 166L253.639 172.167C253.806 172.269 253.806 172.426 253.639 172.518C253.546 172.568 253.441 172.594 253.335 172.594C253.228 172.594 253.124 172.568 253.03 172.518V172.518Z" fill="#4D4468"/>
<path d="M98.4754 330.624L122.875 316.525V302.297C122.874 301.83 122.751 301.372 122.517 300.969C122.283 300.565 121.947 300.23 121.543 299.997C121.138 299.764 120.68 299.641 120.213 299.642C119.746 299.642 119.288 299.765 118.884 299.998L106.568 307.116V288.309L98.4199 293.008L98.4754 330.624Z" fill="#8291DB"/>
<path d="M121.683 300.062L129.665 304.688L120.02 308.806L121.683 300.062Z" fill="#8291DB"/>
<path d="M106.615 335.351L131.051 321.252V307.024C131.05 306.558 130.927 306.1 130.693 305.696C130.459 305.292 130.123 304.957 129.719 304.724C129.315 304.491 128.856 304.369 128.389 304.369C127.923 304.369 127.464 304.492 127.06 304.725L114.745 311.844V293.036L106.596 297.736L106.615 335.351Z" fill="#7A7FFF"/>
<path d="M33.2501 255.403L41.4079 250.694L114.745 293.036L106.596 297.736L33.2501 255.403Z" fill="#093554"/>
<path d="M33.2501 255.402V293.027L106.615 335.351L106.596 297.736L33.2501 255.402Z" fill="#7A7FFF"/>
<path d="M194.013 46.8758L206.67 52.9326C207.006 53.1033 207.288 53.3636 207.485 53.6846C207.682 54.0056 207.786 54.3749 207.786 54.7515C207.786 55.1281 207.682 55.4974 207.485 55.8184C207.288 56.1395 207.006 56.3997 206.67 56.5704L205.746 57.1244C205.104 57.4519 204.393 57.6226 203.672 57.6226C202.951 57.6226 202.24 57.4519 201.598 57.1244L188.904 49.8581C188.588 49.6721 188.326 49.407 188.144 49.0888C187.962 48.7705 187.866 48.4103 187.866 48.0438C187.866 47.6772 187.962 47.317 188.144 46.9988C188.326 46.6806 188.588 46.4154 188.904 46.2295L189.828 46.9127C190.472 46.5734 191.188 46.393 191.916 46.3866C192.644 46.3801 193.363 46.5479 194.013 46.8758V46.8758Z" fill="#EFEFF4"/>
<path d="M194.013 45.6294L206.67 52.9326C207.815 53.5974 207.815 54.6684 206.67 55.324L205.746 55.8872C205.102 56.2104 204.392 56.3787 203.672 56.3787C202.952 56.3787 202.241 56.2104 201.598 55.8872L188.941 48.5839C187.795 47.9191 187.795 46.8481 188.941 46.1926L189.865 45.6294C190.508 45.3062 191.219 45.1378 191.939 45.1378C192.659 45.1378 193.369 45.3062 194.013 45.6294Z" fill="#EFF3F9"/>
<path d="M141.934 114.073L197.126 145.881V182.914C197.126 186.838 194.355 188.454 190.973 186.46L148.078 161.716C146.288 160.55 144.798 158.978 143.73 157.128C142.663 155.278 142.047 153.202 141.934 151.07V114.073Z" fill="#058ED8"/>
<path d="M197.126 145.918L169.53 155.742L141.934 114.073L197.126 145.918Z" fill="#0370AA"/>
<path d="M197.126 176.47V182.961L143.708 152.233V145.955L149.353 149.177L149.362 149.186L197.126 176.47Z" fill="#5F546F"/>
<path d="M147.367 151.929L196.276 180.145C196.276 180.145 179.961 184.659 171.84 222.515C163.719 260.37 147.404 274.219 147.404 274.219L98.5031 246.003C98.5031 246.003 117.184 232.505 120.057 195.942C122.93 159.38 147.367 151.929 147.367 151.929Z" fill="#E5E5EA"/>
<path d="M139.218 166.037L152.217 173.58C152.217 173.58 146.831 178.196 144.179 187.753L131.051 180.2C131.051 180.2 132.769 169.757 139.218 166.037Z" fill="#5F546F"/>
<path d="M173.17 187.429L155.441 177.181C155.302 177.1 155.2 176.967 155.157 176.812C155.114 176.657 155.133 176.491 155.21 176.35C155.251 176.279 155.306 176.218 155.371 176.168C155.436 176.119 155.51 176.083 155.589 176.062C155.668 176.042 155.75 176.037 155.831 176.048C155.912 176.06 155.99 176.087 156.06 176.128L173.78 186.368C173.922 186.451 174.026 186.586 174.069 186.745C174.113 186.904 174.092 187.073 174.011 187.217V187.217C173.925 187.354 173.79 187.452 173.633 187.491C173.477 187.531 173.311 187.509 173.17 187.429V187.429Z" fill="#5F546F"/>
<path d="M171.304 192.378L153.584 182.139C153.512 182.1 153.448 182.046 153.397 181.981C153.346 181.917 153.309 181.843 153.287 181.763C153.266 181.684 153.26 181.601 153.272 181.52C153.283 181.438 153.311 181.36 153.353 181.289V181.289C153.394 181.219 153.449 181.157 153.514 181.108C153.579 181.058 153.653 181.022 153.732 181.002C153.811 180.981 153.893 180.976 153.974 180.988C154.055 180.999 154.133 181.026 154.203 181.068L171.932 191.307C172.003 191.348 172.065 191.403 172.114 191.468C172.163 191.533 172.199 191.607 172.22 191.686C172.241 191.765 172.245 191.847 172.234 191.928C172.223 192.009 172.196 192.086 172.154 192.157V192.157C172.113 192.227 172.058 192.289 171.993 192.338C171.928 192.388 171.854 192.424 171.775 192.444C171.696 192.465 171.614 192.47 171.533 192.458C171.452 192.447 171.374 192.42 171.304 192.378V192.378Z" fill="#5F546F"/>
<path d="M169.447 197.346L151.718 187.106C151.576 187.023 151.472 186.888 151.429 186.729C151.385 186.57 151.406 186.4 151.487 186.257V186.257C151.528 186.186 151.583 186.125 151.648 186.075C151.713 186.026 151.787 185.99 151.866 185.969C151.945 185.949 152.027 185.944 152.108 185.955C152.189 185.966 152.267 185.994 152.337 186.035L170.066 196.275C170.137 196.316 170.199 196.37 170.248 196.435C170.297 196.5 170.333 196.574 170.354 196.653C170.375 196.732 170.379 196.814 170.368 196.895C170.357 196.976 170.329 197.054 170.288 197.124V197.124C170.248 197.194 170.194 197.256 170.13 197.305C170.066 197.354 169.992 197.39 169.914 197.411C169.836 197.431 169.754 197.436 169.674 197.425C169.594 197.414 169.517 197.387 169.447 197.346Z" fill="#5F546F"/>
<path d="M167.581 202.313L149.852 192.046C149.781 192.005 149.719 191.95 149.67 191.885C149.621 191.82 149.585 191.746 149.564 191.667C149.543 191.588 149.539 191.506 149.55 191.425C149.561 191.344 149.589 191.267 149.63 191.196V191.196C149.713 191.054 149.849 190.95 150.008 190.907C150.167 190.864 150.336 190.885 150.48 190.966L168.2 201.279C168.342 201.362 168.446 201.497 168.489 201.656C168.532 201.815 168.511 201.985 168.431 202.128V202.128C168.342 202.265 168.203 202.36 168.044 202.395C167.885 202.43 167.718 202.4 167.581 202.313Z" fill="#5F546F"/>
<path d="M91.9898 235.293C91.8683 236.378 91.8066 237.47 91.805 238.562C91.8536 238.952 91.9872 239.327 92.1963 239.66C92.4053 239.994 92.6849 240.277 93.0153 240.491C93.423 240.506 93.8294 240.438 94.2104 240.292C94.5913 240.146 94.939 239.925 95.2326 239.642C95.5005 239.143 94.3826 238.34 94.4288 237.555C94.475 236.77 95.2603 237.352 95.4358 237.195C95.6114 237.038 94.2256 235.293 94.2256 235.293H91.9898Z" fill="#F9C4AA"/>
<path d="M91.6941 235.625C92.2089 235.842 92.7617 235.953 93.3202 235.953C93.8786 235.953 94.4314 235.842 94.9462 235.625C94.9462 235.625 94.1978 226.272 94.4935 225.321C94.7891 224.37 96.3412 220.834 96.3412 220.834L96.5722 210.853C96.0972 211.273 95.7217 211.794 95.4728 212.377C94.9277 213.485 90.9828 223.373 90.9273 224.214C90.8719 225.054 91.6941 235.625 91.6941 235.625Z" fill="#F7B43E"/>
<path d="M101.016 260.37C101.016 260.462 100.776 262.373 101.7 262.613C102.624 262.854 103.825 262.521 103.917 262.733C104.058 263.203 104.026 263.708 103.828 264.156C103.63 264.605 103.278 264.968 102.836 265.18C101.912 265.688 101.792 265.125 101.339 265.365C100.887 265.605 100.24 267.212 98.9928 266.99C97.7455 266.768 97.7825 266.381 97.7825 266.381L98.4569 260.952L101.016 260.37Z" fill="#CE9795"/>
<path d="M105.525 237.334C105.525 237.334 104.813 250.149 104.601 251.405C104.545 251.719 104.333 252.476 104.046 253.417C103.196 256.27 101.718 260.896 101.718 260.896C99.7134 263.066 97.9211 261.718 97.9211 261.718C97.9211 261.718 100.24 252.817 100.637 251.912C101.035 251.008 100.545 243.187 99.6579 241.959C98.771 240.731 99.0297 234.942 99.0297 234.942L101.801 232.865L102.725 232.154L105.525 237.334Z" fill="#5F546F"/>
<path d="M113.451 268.772C113.451 268.772 113.756 270.323 114.532 270.268C115.308 270.212 116.029 269.935 116.14 270.055C116.251 270.175 116.833 271.606 115.964 272.354C115.096 273.102 112.583 274.626 112.075 274.478C111.567 274.33 110.55 274.062 110.523 273.822C110.495 273.582 110.938 269.307 111.447 268.772C111.955 268.236 113.451 268.772 113.451 268.772Z" fill="#CE9795"/>
<path d="M105.525 237.334C105.525 237.334 104.813 250.149 104.601 251.405C104.545 251.719 104.333 252.476 104.046 253.417C104.471 251.959 103.353 247.638 103.797 246.622C104.24 245.606 102.818 242.079 101.441 240.944C100.064 239.808 100.36 236.327 100.36 236.327L101.82 232.893L102.744 232.182L105.525 237.334Z" fill="#433A59"/>
<path d="M110.523 269.04C110.523 269.04 112.583 270.148 114.218 269.04C114.218 269.04 114.966 255.467 114.606 253.796C114.246 252.125 111.022 236.521 110.513 236.346C110.005 236.17 103.427 237.915 103.427 237.915C103.427 237.915 103.187 243.215 105.515 245.191C107.843 247.167 110.421 253.02 110.513 253.916C110.606 254.812 110.523 269.04 110.523 269.04Z" fill="#5F546F"/>
<path d="M111.447 236.946C108.828 238.31 105.898 238.969 102.947 238.857L102.661 233.114L101.459 237.915C101.459 237.915 98.2906 236.226 97.1542 234.49C97.1542 234.49 96.4429 225.035 96.2304 222.108C96.0495 218.608 96.0495 215.101 96.2304 211.601C96.2743 211.271 96.4241 210.964 96.6573 210.726C96.8904 210.488 97.1944 210.332 97.5238 210.281C98.383 210.17 108.425 214.113 109.534 214.897C109.886 215.135 110.176 215.453 110.378 215.826C110.581 216.199 110.691 216.615 110.698 217.04C110.698 217.178 110.698 217.298 110.698 217.409C110.597 218.074 111.447 236.946 111.447 236.946Z" fill="#FFCD5E"/>
<path d="M115.087 222.847C115.087 222.847 114.966 220.659 114.966 220.502C114.966 220.345 115.604 220.382 115.743 221.01C116.192 220.826 116.618 220.588 117.008 220.299C117.101 220.114 117.636 218.544 117.932 218.664C118.228 218.785 118.967 222.293 118.542 222.847C118.117 223.401 116.389 225.617 116.389 225.617L115.087 222.847Z" fill="#F9C4AA"/>
<path d="M105.552 210.743C105.301 210.954 105.096 211.215 104.95 211.509C104.804 211.802 104.72 212.123 104.702 212.451V212.995H104.231C103.169 212.995 100.646 212.885 100.351 211.998L101.626 207.945L103.575 209.339L105.552 210.743Z" fill="#F9C4AA"/>
<path d="M107.215 238.478C108.666 233.197 104.869 233.114 106.217 232.182C107.566 231.249 107.021 224.629 106.781 221.305C106.672 220.419 106.809 219.521 107.175 218.707C107.542 217.893 108.124 217.195 108.86 216.689L110.707 217.104C110.707 217.243 110.707 217.363 110.707 217.473C110.643 218.101 111.493 236.973 111.493 236.973C110.144 237.672 108.704 238.178 107.215 238.478V238.478Z" fill="#F7B43E"/>
<path d="M115.068 222.515C115.068 222.515 117.091 223.65 116.805 225.691C116.805 225.691 113.267 232.772 112.481 233.271C112.299 233.377 112.097 233.446 111.888 233.475C111.678 233.503 111.465 233.49 111.261 233.436C111.057 233.382 110.865 233.288 110.698 233.16C110.53 233.032 110.389 232.872 110.282 232.689C109.996 232.015 107.917 219.939 107.862 219.209C107.806 218.48 107.696 216.098 109.857 215.765C112.019 215.433 112.712 227.981 112.712 227.981L115.068 222.515Z" fill="#FFCD5E"/>
<path d="M107.058 203.172C107.058 203.172 107.612 206.948 106.633 209.21C105.857 211.001 105.774 211.057 105.525 211.001C105.275 210.946 100.905 207.086 100.905 207.086C100.905 207.086 106.901 201.076 107.058 203.172Z" fill="#F9C4AA"/>
<path d="M104.989 206.736C104.989 206.736 104.924 205.748 104.407 205.886C103.889 206.025 103.76 207.973 104.702 208.037C104.702 208.037 103.381 210.447 101.081 209.681C101.081 209.681 98.4107 205.231 98.1428 204.667C97.8749 204.104 97.3944 200.605 99.4916 199.497C101.589 198.389 102.328 198.86 102.328 198.86C102.328 198.86 105.645 197.881 106.947 200.365C108.25 202.848 107.446 205.6 105.894 205.978C105.505 206.103 105.18 206.374 104.989 206.736V206.736Z" fill="#382130"/>
<path d="M105.552 210.743C105.301 210.954 105.096 211.215 104.95 211.509C104.804 211.802 104.72 212.123 104.702 212.451V212.995H104.231C104.192 212.561 104.207 212.124 104.277 211.694C104.425 210.946 103.483 209.348 103.483 209.348H103.575L105.552 210.743Z" fill="#F4B49A"/>
<path d="M149.362 149.186L143.708 152.233V145.955L149.353 149.177L149.362 149.186Z" fill="#40364F"/>
</g>
<defs>
<clipPath id="clip0">
<rect width="616" height="348" fill="white"/>
</clipPath>
</defs>
</svg>
