<svg width="575" height="531" viewBox="0 0 575 531" fill="none" xmlns="http://www.w3.org/2000/svg">
<path d="M399.952 70.8776C385.375 59.2995 354.934 68.1821 336.56 51.887C318.185 35.5919 220.923 -45.7611 137.013 66.6506C110.982 101.507 107.062 125.705 67.7407 130.483C38.5865 134.036 -31.4817 193.765 26.3981 277.017C64.3108 331.354 58.186 355.062 52.6736 395.371C47.2225 435.618 90.3414 570.329 232.131 468.76C308.508 414.055 473.45 336.623 444.725 192.111C424.023 88.0916 415.325 83.007 399.952 70.8776Z" fill="#CFEBFF"/>
<g opacity="0.5">
<path opacity="0.5" d="M533.474 301.153L570.345 225.681C570.345 222.557 570.223 219.371 569.978 216.186L526.614 304.951C528.941 303.971 531.146 302.623 533.474 301.153Z" fill="#7A80FF"/>
<path opacity="0.5" d="M480.677 303.787L554.666 152.353C553.931 150.515 553.134 148.616 552.399 146.84L476.819 301.582C478.105 302.378 479.33 303.114 480.677 303.787Z" fill="#7A80FF"/>
<path opacity="0.5" d="M503.156 310.403L564.771 184.208C564.22 182.003 563.669 179.859 563.057 177.653L498.439 309.975C500.032 310.22 501.624 310.342 503.156 310.403Z" fill="#7A80FF"/>
<path opacity="0.5" d="M461.813 289.698L542.355 124.786C541.558 123.132 540.64 121.54 539.843 119.885L458.444 286.512C459.547 287.554 460.71 288.656 461.813 289.698Z" fill="#7A80FF"/>
<path opacity="0.5" d="M444.97 271.442L528.512 100.466C527.532 99.0572 526.614 97.6482 525.634 96.2393L441.907 267.705C442.887 268.992 443.928 270.217 444.97 271.442Z" fill="#7A80FF"/>
<path opacity="0.5" d="M412.937 231.562L497.031 59.422C495.928 58.2581 494.887 57.0329 493.846 55.869L409.507 228.438C410.671 229.479 411.834 230.459 412.937 231.562Z" fill="#7A80FF"/>
<path opacity="0.5" d="M429.045 251.349L513.2 79.0251C512.159 77.7387 511.179 76.4522 510.199 75.1045L426.044 247.428C427.024 248.715 428.004 250.001 429.045 251.349Z" fill="#7A80FF"/>
<path opacity="0.5" d="M394.501 216.615L479.942 41.7792C478.779 40.6765 477.676 39.6351 476.513 38.655L390.765 214.164C391.99 214.961 393.276 215.818 394.501 216.615Z" fill="#7A80FF"/>
<path opacity="0.5" d="M374.228 205.404L461.752 26.2805C460.527 25.4228 459.363 24.5039 458.138 23.6463L370.124 203.628C371.472 204.179 372.88 204.792 374.228 205.404Z" fill="#7A80FF"/>
<path opacity="0.5" d="M328.843 192.907L420.777 4.65576C419.368 4.22694 417.837 3.85938 416.428 3.49182L324.31 192.049C325.842 192.295 327.311 192.662 328.843 192.907Z" fill="#7A80FF"/>
<path opacity="0.5" d="M352.301 197.502L442.152 13.5997C440.866 12.9258 439.58 12.252 438.171 11.5781L347.952 196.338C349.422 196.705 350.892 197.073 352.301 197.502Z" fill="#7A80FF"/>
<path opacity="0.5" d="M303.118 186.904C303.915 187.087 304.833 187.394 305.63 187.578L396.522 1.53149C394.807 1.59275 393.092 1.71527 391.377 1.96031L301.342 186.414C301.955 186.597 302.506 186.72 303.118 186.904Z" fill="#7A80FF"/>
<path opacity="0.5" d="M568.814 245.162L546.826 290.065C559.198 277.323 565.996 261.886 568.814 245.162Z" fill="#7A80FF"/>
<path opacity="0.5" d="M491.273 308.382L559.994 167.607C559.32 165.647 558.708 163.564 557.973 161.603L486.986 306.85C488.517 307.402 489.926 307.953 491.273 308.382Z" fill="#7A80FF"/>
<path opacity="0.5" d="M516.875 308.811L568.569 203.076C568.201 200.565 567.773 198.114 567.283 195.541L511.363 309.975C513.2 309.668 515.038 309.24 516.875 308.811Z" fill="#7A80FF"/>
<path opacity="0.5" d="M470.878 297.478L548.724 138.202C547.928 136.426 547.132 134.71 546.336 132.995L467.325 294.598C468.489 295.64 469.714 296.498 470.878 297.478Z" fill="#7A80FF"/>
<path opacity="0.5" d="M453.238 280.938L535.617 112.228C534.76 110.635 533.841 109.104 532.984 107.572L449.992 277.384C451.094 278.61 452.136 279.774 453.238 280.938Z" fill="#7A80FF"/>
<path opacity="0.5" d="M421.144 241.18L505.238 68.9785C504.197 67.7534 503.217 66.5282 502.114 65.2417L418.082 237.443C419.062 238.668 420.103 239.893 421.144 241.18Z" fill="#7A80FF"/>
<path opacity="0.5" d="M436.946 261.518L520.979 89.5007C519.999 88.1529 519.019 86.744 518.039 85.3962L433.884 257.659C434.925 258.945 435.966 260.232 436.946 261.518Z" fill="#7A80FF"/>
<path opacity="0.5" d="M403.933 223.66L488.579 50.3556C487.476 49.1917 486.374 48.089 485.332 46.9863L400.381 220.842C401.606 221.761 402.769 222.679 403.933 223.66Z" fill="#7A80FF"/>
<path opacity="0.5" d="M382.068 209.264C382.864 209.692 383.721 210.121 384.517 210.611L470.939 33.6929C469.775 32.6515 468.612 31.7326 467.448 30.7524L380.659 208.467C381.149 208.773 381.578 208.957 382.068 209.264Z" fill="#7A80FF"/>
<path opacity="0.5" d="M340.725 194.99L431.801 8.57638C430.454 7.96378 429.045 7.4737 427.636 6.92236L336.131 194.194C337.662 194.5 339.194 194.684 340.725 194.99Z" fill="#7A80FF"/>
<path opacity="0.5" d="M363.448 201.055L452.136 19.5419C450.911 18.7455 449.625 17.8879 448.4 17.1528L359.283 199.584C360.631 200.013 362.101 200.565 363.448 201.055Z" fill="#7A80FF"/>
<path opacity="0.5" d="M317.144 190.457L409.139 2.14411C407.547 1.96033 406.016 1.71529 404.423 1.59277L312.673 189.354C314.143 189.783 315.674 190.15 317.144 190.457Z" fill="#7A80FF"/>
<path opacity="0.5" d="M294.421 184.269L382.741 3.43054C380.904 3.92062 379.005 4.4107 377.045 4.96204L290.072 182.922C291.542 183.351 293.012 183.841 294.421 184.269Z" fill="#7A80FF"/>
<path opacity="0.5" d="M271.759 175.571C272.004 175.693 272.372 175.816 272.739 175.999L351.75 14.1511C349.606 15.0087 347.523 15.9889 345.38 17.0303L268.635 174.284C270.595 175.142 271.759 175.571 271.759 175.571Z" fill="#7A80FF"/>
<path opacity="0.5" d="M283.396 180.41L367.674 7.90253C365.714 8.57638 363.632 9.3115 361.672 10.1079L279.293 178.817C280.64 179.43 281.988 179.859 283.396 180.41Z" fill="#7A80FF"/>
<path opacity="0.5" d="M262.266 170.976L334.968 22.1148C332.763 23.2787 330.558 24.4427 328.353 25.6066L258.468 168.587C259.816 169.506 261.041 170.302 262.266 170.976Z" fill="#7A80FF"/>
<path opacity="0.5" d="M252.405 164.299C252.466 164.36 252.527 164.36 252.588 164.421L317.389 31.7938C315.062 33.1415 312.734 34.5505 310.407 35.9595L248.975 161.665C250.077 162.522 251.241 163.441 252.405 164.299Z" fill="#7A80FF"/>
<path opacity="0.5" d="M235.868 145.921L279.354 56.9716C276.72 58.9319 274.025 61.0148 271.453 62.9751L233.663 140.407C234.214 142.307 234.949 144.144 235.868 145.921Z" fill="#7A80FF"/>
<path opacity="0.5" d="M243.524 156.58L298.892 43.2495C296.442 44.9035 293.992 46.4962 291.542 48.2115L240.4 152.966C241.319 154.191 242.421 155.355 243.524 156.58Z" fill="#7A80FF"/>
<path opacity="0.5" d="M232.254 126.992L256.508 77.3711C248.056 87.1114 241.564 98.0769 237.644 109.778C234.52 115.842 232.805 121.601 232.254 126.992Z" fill="#7A80FF"/>
</g>
</svg>
